<?xml version="1.0" encoding="UTF-8"?>
<svg version="1.1" xmlns="http://www.w3.org/2000/svg" width="1420" height="244">
<path d="M0 0 C1.63538924 -0.00599269 3.27077568 -0.01279992 4.90615845 -0.02035522 C9.32786024 -0.03794764 13.74948451 -0.04270776 18.17121792 -0.0439868 C20.93980899 -0.04541285 23.70838063 -0.04969105 26.47696686 -0.05498123 C36.15295147 -0.07345954 45.82888114 -0.08165465 55.50488281 -0.08007812 C64.49637365 -0.0788775 73.48762415 -0.09996995 82.47905421 -0.13156545 C90.22206133 -0.1577956 97.96499027 -0.1684426 105.70804143 -0.16716731 C110.32223938 -0.16665963 114.93622356 -0.1722346 119.55037689 -0.19352341 C123.89421564 -0.21301969 128.23763919 -0.21295325 132.58149338 -0.19849014 C134.16602822 -0.19641495 135.75058985 -0.20102506 137.33507919 -0.21321106 C152.96017008 -0.32549573 165.68183522 2.76087153 177.45019531 13.47802734 C188.43677913 25.05226565 189.06373503 38.56973831 189.03735352 53.65136719 C189.04170663 55.2998528 189.04689178 56.94833639 189.05284119 58.59681702 C189.06617801 63.05351508 189.06681579 67.51012806 189.06427789 71.96684217 C189.06320454 75.6967415 189.06810083 79.42662386 189.07288331 83.15651953 C189.08396015 91.96096746 189.0844262 100.76537271 189.07836914 109.56982422 C189.0723305 118.6317517 189.08464177 127.69352387 189.10593921 136.75542486 C189.12359188 144.55529909 189.12955079 152.35512404 189.12630147 160.1550175 C189.12449428 164.80487904 189.12706814 169.45462978 189.14101601 174.10447311 C189.15364952 178.47944333 189.15159836 182.85417254 189.13860512 187.22913933 C189.13625176 188.82740932 189.13892914 190.42569658 189.14722824 192.02394676 C189.21680902 206.47478889 187.31916238 220.44875036 176.76269531 231.29052734 C167.09000039 239.11062508 157.30851577 243.3941687 144.83300781 243.43769836 C144.14778769 243.44137505 143.46256758 243.44505174 142.75658321 243.44883984 C140.46694621 243.45982788 138.17735467 243.46371224 135.88769531 243.4675293 C134.24304563 243.47379781 132.59839735 243.48044495 130.95375061 243.48744202 C125.55674213 243.50844479 120.15973351 243.51884325 114.76269531 243.52880859 C112.90038031 243.53285805 111.03806544 243.53697503 109.17575073 243.54115868 C100.42186348 243.56020478 91.6679846 243.57443508 82.91408062 243.58277065 C72.83225114 243.59253073 62.75064193 243.61882057 52.66889 243.65927154 C44.86227935 243.68951124 37.05573154 243.70424708 29.24906349 243.70755166 C24.59343301 243.70989384 19.93803799 243.71874495 15.2824707 243.74401283 C10.89602401 243.76743542 6.50996543 243.77147032 2.12347221 243.76125145 C0.52280823 243.76075935 -1.07787579 243.7669824 -2.67848015 243.7808075 C-16.22941681 243.8912033 -28.40819886 242.0772085 -39.23730469 233.29052734 C-39.8625 232.78908203 -40.48769531 232.28763672 -41.13183594 231.77099609 C-48.72113057 224.97535319 -52.79004643 215.24034633 -54.23730469 205.29052734 C-54.53095877 199.90327645 -54.52152344 194.52227548 -54.51196289 189.12915039 C-54.51631618 187.50199145 -54.52150138 185.87483455 -54.52745056 184.24768066 C-54.5407866 179.84876455 -54.54142518 175.44993464 -54.53888726 171.05100226 C-54.53781371 167.36841836 -54.54271082 163.68585161 -54.54749268 160.0032714 C-54.55856959 151.30905251 -54.55903576 142.61487682 -54.55297852 133.9206543 C-54.54694206 124.97576156 -54.55924558 116.03102625 -54.58054858 107.08616036 C-54.5982102 99.38478336 -54.6041587 91.68345626 -54.60091084 83.98205978 C-54.59910483 79.39196953 -54.60166553 74.80199155 -54.61562538 70.21191978 C-54.62827328 65.89193748 -54.62619436 61.57219906 -54.61321449 57.25222015 C-54.6108641 55.67533343 -54.61352763 54.09842916 -54.62183762 52.52156258 C-54.69864389 36.80199079 -52.47038638 23.95958583 -41.61230469 12.04052734 C-29.7605535 0.84594783 -15.40537163 -0.01129965 0 0 Z " fill="#746EB8" transform="translate(54.2373046875,0.70947265625)"/>
<path d="M0 0 C14.89125 -0.061875 29.7825 -0.12375 45.125 -0.1875 C49.80059082 -0.21481201 54.47618164 -0.24212402 59.29345703 -0.27026367 C65.07006836 -0.28381348 65.07006836 -0.28381348 67.787323 -0.28633118 C69.65672966 -0.29089224 71.52612834 -0.30134683 73.39547729 -0.31672668 C92.42508411 -0.46525696 109.22158365 0.7585248 123.734375 14.47265625 C131.72823819 23.38994846 134.39492951 33.68531789 134.3125 45.375 C134.30686035 46.21281006 134.3012207 47.05062012 134.29541016 47.91381836 C134.07767023 59.00454165 130.90259573 69.05343708 122.90234375 77.11328125 C120.97538824 78.80242737 119.00746563 80.40849572 117 82 C116.34 82.66 115.68 83.32 115 84 C115.70125 84.3403125 116.4025 84.680625 117.125 85.03125 C129.88740823 91.55117595 136.45389262 99.73814816 141.140625 113.30078125 C144.08456066 125.97308612 142.76052079 140.05515978 136.64453125 151.546875 C135.2159095 153.82960574 133.69604222 155.90972036 132 158 C131.49855469 158.62519531 130.99710938 159.25039062 130.48046875 159.89453125 C122.63190648 168.65971393 110.20421776 173.3572378 98.61477089 174.16656876 C91.65682289 174.424802 84.69549944 174.34470172 77.734375 174.29296875 C75.74105074 174.28854975 73.74772298 174.28549424 71.75439453 174.28381348 C64.41954276 174.26817924 57.08476584 174.22629557 49.75 174.1875 C33.3325 174.125625 16.915 174.06375 0 174 C0 116.58 0 59.16 0 0 Z M40 37 C40 47.56 40 58.12 40 69 C46.01443063 69.06898455 52.02748072 69.12868474 58.04199219 69.16479492 C60.08663594 69.17985288 62.13124755 69.20030357 64.17578125 69.22631836 C67.11987252 69.26283311 70.06353557 69.27975651 73.0078125 69.29296875 C73.9174173 69.30845261 74.82702209 69.32393646 75.76419067 69.33988953 C81.66231235 69.34144277 86.10335155 68.64207364 90.64453125 64.5 C94.60812609 59.40963071 95.64697331 55.39915422 95 49 C93.35720107 43.8122139 91.576048 40.9744312 87 38 C84.19462697 37.06487566 82.51834636 36.87817093 79.62036133 36.88647461 C78.29933159 36.88658791 78.29933159 36.88658791 76.95161438 36.88670349 C75.53117073 36.89444542 75.53117073 36.89444542 74.08203125 36.90234375 C73.10965012 36.9037587 72.13726898 36.90517365 71.13542175 36.90663147 C68.02774996 36.91223183 64.92015004 36.92478438 61.8125 36.9375 C59.70638125 36.94251495 57.60026137 36.94707787 55.49414062 36.95117188 C50.32937707 36.96135075 45.16476906 36.98092617 40 37 Z M40 102 C40 113.55 40 125.1 40 137 C46.9932568 137.09198292 53.98440277 137.17157937 60.9777832 137.21972656 C63.35513432 137.23980363 65.7324363 137.26707113 68.10961914 137.30175781 C71.53283845 137.35044614 74.95540306 137.37300853 78.37890625 137.390625 C79.9652462 137.42159271 79.9652462 137.42159271 81.58363342 137.45318604 C87.96739854 137.45511374 91.81676197 136.81608267 97 133 C100.53113641 128.81839109 101.81160033 125.46359042 102 120 C101.41175498 113.66697914 98.7446736 109.1998307 94 105 C87.94998226 101.2349675 80.65089176 101.86432263 73.7890625 101.90234375 C72.33685806 101.90446617 72.33685806 101.90446617 70.85531616 101.90663147 C67.77851201 101.91220635 64.70178197 101.92475423 61.625 101.9375 C59.53255314 101.94251825 57.44010513 101.94708059 55.34765625 101.95117188 C50.23171965 101.96131449 45.11594231 101.98089482 40 102 Z " fill="#746EB8" transform="translate(1070,11)"/>
<path d="M0 0 C4.51366281 3.55124545 8.46076868 7.65794657 12.36328125 11.859375 C13.11609375 11.10527344 13.86890625 10.35117188 14.64453125 9.57421875 C15.54171875 8.67832031 16.43890625 7.78242187 17.36328125 6.859375 C17.95109375 6.26253906 18.53890625 5.66570313 19.14453125 5.05078125 C31.03351016 -6.21672831 45.9421596 -8.85195857 61.69140625 -8.44921875 C75.78584387 -7.74682845 90.07069446 -2.84895196 99.77734375 7.8046875 C109.6650567 20.61487719 113.55246008 35.36651213 113.47680664 51.36499023 C113.47695267 52.18531235 113.47709869 53.00563446 113.47724915 53.85081482 C113.47655709 56.53989381 113.46879804 59.22890198 113.4609375 61.91796875 C113.45907081 63.79126447 113.45764809 65.66456067 113.45664978 67.53785706 C113.4528444 72.45166386 113.44303113 77.36544078 113.4319458 82.27923584 C113.41988346 88.18393079 113.41532001 94.08863577 113.40949249 99.99333954 C113.39981823 108.94870543 113.38064784 117.90400584 113.36328125 126.859375 C101.15328125 126.859375 88.94328125 126.859375 76.36328125 126.859375 C76.32589844 121.04441406 76.28851563 115.22945312 76.25 109.23828125 C76.21970435 105.54228874 76.18854606 101.84634346 76.15429688 98.15039062 C76.1000826 92.29112193 76.04896833 86.43194665 76.0168457 80.57250977 C75.99073108 75.84556739 75.95027143 71.11894078 75.90009499 66.39219475 C75.88348129 64.59384035 75.87193292 62.79543141 75.86566734 60.99701118 C76.20963102 46.10862268 76.20963102 46.10862268 70.05078125 32.984375 C64.20476913 28.36194681 58.76742677 26.68541563 51.36328125 26.859375 C45.01963259 27.89056317 40.37831547 29.62766375 36.36328125 34.859375 C32.86323143 40.98446218 32.21128142 45.87027577 32.15795898 52.84082031 C32.14805939 53.6411972 32.13815979 54.4415741 32.12796021 55.26620483 C32.09642183 57.90660666 32.07161812 60.54702647 32.046875 63.1875 C32.02629885 65.02024803 32.00530221 66.85299139 31.98390198 68.68572998 C31.92874954 73.50582082 31.87931017 78.325954 31.83105469 83.14611816 C31.77194981 88.93148422 31.70575943 94.716773 31.6407547 100.5020752 C31.54283109 109.28779454 31.45391626 118.07356381 31.36328125 126.859375 C19.15328125 126.859375 6.94328125 126.859375 -5.63671875 126.859375 C-5.6625 121.05601562 -5.68828125 115.25265625 -5.71484375 109.2734375 C-5.74003042 105.58198798 -5.7663773 101.89061891 -5.796875 98.19921875 C-5.84510058 92.34879319 -5.88918629 86.49855404 -5.90771484 80.64794922 C-5.92293449 75.92742054 -5.9574736 71.20738174 -6.00502777 66.48707199 C-6.01978703 64.69233856 -6.02775661 62.89753516 -6.0286026 61.10274124 C-5.73539807 46.06253225 -5.73539807 46.06253225 -12.28179932 32.94326782 C-16.967982 28.31848046 -21.86178427 26.94767756 -28.30859375 26.796875 C-34.77510656 27.08268772 -39.80860339 28.40703277 -44.63671875 32.859375 C-49.2635232 38.87153079 -49.78655667 44.58931545 -49.84204102 51.93261719 C-49.85194061 52.74274765 -49.86184021 53.55287811 -49.87203979 54.38755798 C-49.9035809 57.06042578 -49.92838298 59.73331134 -49.953125 62.40625 C-49.97370091 64.26141822 -49.99469755 66.11658183 -50.01609802 67.97174072 C-50.07125291 72.85101577 -50.12069121 77.73033266 -50.16894531 82.60968018 C-50.22804793 88.46596345 -50.29423967 94.32217035 -50.3592453 100.1783905 C-50.45717199 109.0720053 -50.54608472 117.96566942 -50.63671875 126.859375 C-62.84671875 126.859375 -75.05671875 126.859375 -87.63671875 126.859375 C-87.75704518 105.9582288 -87.75704518 105.9582288 -87.78320312 96.97265625 C-87.80105959 90.86792062 -87.82206561 84.76332139 -87.86303711 78.65869141 C-87.89589916 73.73088217 -87.91362775 68.80321945 -87.92135048 63.87530899 C-87.92684622 62.00566429 -87.93757637 60.1360266 -87.95390892 58.26644516 C-88.12168092 38.24514567 -85.37413916 20.73655219 -71.63671875 5.234375 C-53.65197321 -11.7996351 -20.38531934 -13.29328387 0 0 Z " fill="#F1F2F2" transform="translate(414.63671875,58.140625)"/>
<path d="M0 0 C14.30577019 12.08551466 21.56219517 28.68811718 24 47 C25.60556951 66.72871026 20.39040873 85.85455316 7.6171875 101.09765625 C-5.20132748 115.3128154 -22.97616467 122.52748552 -41.8125 123.8125 C-62.10136734 124.82014073 -82.02197745 119.53505429 -97.375 105.75 C-102.6601116 100.78576713 -106.59994142 95.38992242 -110 89 C-110.47050781 88.12730469 -110.94101562 87.25460938 -111.42578125 86.35546875 C-120.45910443 68.15558753 -120.21002704 46.86690052 -113.96875 27.859375 C-107.49198752 10.79223062 -95.08121517 -1.05843685 -79 -9 C-53.37722289 -20.40670526 -22.4090859 -16.71414527 0 0 Z M-72.78125 29.88671875 C-79.54749144 38.32793663 -81.9073168 48.29702217 -81 59 C-79.31531788 68.89393821 -75.02341187 77.44412148 -67.0234375 83.71484375 C-57.83501702 89.55073243 -47.53712656 90.56007794 -36.98046875 88.375 C-28.24832517 85.63933544 -21.53278468 80.32773346 -17.0625 72.3125 C-12.30385257 61.52292789 -11.92848705 50.30975208 -16.0078125 39.2734375 C-19.64676249 31.29666633 -24.84194459 25.41172851 -32.890625 21.77734375 C-46.82404772 16.64261945 -62.322824 18.80904384 -72.78125 29.88671875 Z " fill="#F1F2F2" transform="translate(1022,65)"/>
<path d="M0 0 C0.14713373 36.01833717 -0.27247315 71.98742078 -1 108 C-36.31 108 -71.62 108 -108 108 C-108 72.69 -108 37.38 -108 1 C-71.98777896 0.25556132 -36.01797742 -0.14316447 0 0 Z " fill="#746EB8" transform="translate(172,75)"/>
<path d="M0 0 C1.25728912 -0.00525696 1.25728912 -0.00525696 2.53997803 -0.01062012 C5.29830315 -0.01938997 8.05636973 -0.01360453 10.81469727 -0.00683594 C12.73991444 -0.00818408 14.66513128 -0.01012585 16.59034729 -0.01263428 C20.62097421 -0.01557922 24.65151233 -0.0113086 28.68212891 -0.00195312 C33.83795217 0.00943332 38.993567 0.00288303 44.14938259 -0.00909805 C48.12402402 -0.01634018 52.09861641 -0.01401778 56.07325935 -0.00884247 C57.97378629 -0.00751208 59.87431774 -0.0091322 61.7748394 -0.01380157 C64.43594964 -0.01890466 67.09672693 -0.01110328 69.7578125 0 C70.53673355 -0.00404846 71.3156546 -0.00809692 72.11817932 -0.01226807 C77.53329611 0.02939641 83.10141403 0.28052544 87.40454102 3.91503906 C88.10450195 4.82769531 88.10450195 4.82769531 88.81860352 5.75878906 C89.30071289 6.36722656 89.78282227 6.97566406 90.27954102 7.60253906 C93.00270544 11.47710858 92.7379421 15.30075427 92.81860352 19.88378906 C92.87467773 21.05748047 92.87467773 21.05748047 92.93188477 22.25488281 C93.06887876 31.43348074 88.58889101 36.21204952 82.42407227 42.60644531 C80.9936285 44.03924536 79.55338376 45.4610601 78.10644531 46.87719727 C76.63745216 48.31507489 75.17935569 49.76330151 73.72290039 51.21386719 C69.80646785 55.09744871 65.88097224 58.94549547 61.67797852 62.52050781 C55.6550027 67.69483009 50.1158732 73.40052333 44.50488281 79.01220703 C42.49180234 81.02307451 40.47081768 83.02577451 38.44946289 85.02832031 C37.16707399 86.30777944 35.88515554 87.58771031 34.60375977 88.86816406 C33.99967789 89.46506042 33.39559601 90.06195679 32.77320862 90.67694092 C29.43212185 94.0232459 29.43212185 94.0232459 27.44360352 98.25878906 C29.13520329 99.95038884 31.27001042 99.39233757 33.58666992 99.40063477 C34.68516266 99.40766922 35.7836554 99.41470367 36.91543579 99.42195129 C38.71215225 99.42819771 38.71215225 99.42819771 40.54516602 99.43457031 C43.06210138 99.45777698 45.57902849 99.48189465 48.09594727 99.50683594 C52.07899602 99.54191267 56.06149301 99.57126505 60.04467773 99.5847168 C63.87855035 99.60021249 67.71152983 99.64044766 71.54516602 99.68457031 C73.3236644 99.68170769 73.3236644 99.68170769 75.13809204 99.67878723 C81.77276763 99.77670334 86.08543246 100.21712538 91.44360352 104.25878906 C95.2420703 109.32341144 95.9654261 113.99691803 95.44360352 120.25878906 C93.7533727 125.70621969 91.64989493 128.58232197 86.55375671 131.40045166 C82.65408726 132.98670244 78.7378317 132.81381593 74.58032227 132.77636719 C73.61518707 132.78337646 72.65005188 132.79038574 71.65567017 132.79760742 C68.48051781 132.81514395 65.30626419 132.80357973 62.13110352 132.79003906 C59.91585113 132.79273521 57.7005999 132.79661866 55.48535156 132.80163574 C50.84859928 132.80752493 46.21215577 132.79898623 41.57543945 132.78027344 C35.64036987 132.75748459 29.70602389 132.77061073 23.77098083 132.79456329 C19.19839046 132.80903673 14.62597084 132.80440811 10.05337524 132.79405212 C7.86536574 132.79138913 5.67734059 132.79463951 3.48934937 132.80397034 C0.42811175 132.81416107 -2.63196387 132.79859875 -5.69311523 132.77636719 C-6.59202484 132.78446411 -7.49093445 132.79256104 -8.41708374 132.80090332 C-14.29241161 132.72209747 -17.71107965 131.62094687 -22.55639648 128.25878906 C-27.5373355 123.10308026 -27.03119527 115.75773349 -27.08764648 109.04003906 C-25.68954933 99.08887697 -19.29810375 93.47041208 -12.30639648 86.69628906 C-11.38987305 85.78943359 -10.47334961 84.88257813 -9.52905273 83.94824219 C-5.67861397 80.16097039 -1.80066618 76.45337632 2.28442383 72.92016602 C6.41913616 69.32278909 10.33787669 65.54256131 14.22485352 61.68066406 C14.92380737 60.98741028 15.62276123 60.29415649 16.34289551 59.57989502 C17.80296833 58.12918845 19.26165509 56.67708562 20.71899414 55.22363281 C22.95870092 52.99375794 25.208849 50.77476115 27.45922852 48.55566406 C28.88175774 47.13965433 30.30365614 45.72301052 31.72485352 44.30566406 C32.39971802 43.64314636 33.07458252 42.98062866 33.76989746 42.29803467 C34.38473999 41.68019104 34.99958252 41.06234741 35.63305664 40.42578125 C36.17740356 39.88507996 36.72175049 39.34437866 37.28259277 38.78729248 C38.7460375 37.18053366 38.7460375 37.18053366 38.44360352 34.25878906 C37.85780014 34.25292282 37.27199677 34.24705658 36.66844177 34.24101257 C30.55208582 34.17690511 24.43624761 34.09244105 18.3203125 33.99633789 C16.04010865 33.9631554 13.75982399 33.93510282 11.47949219 33.91235352 C8.1950447 33.87868524 4.91133337 33.8263618 1.62719727 33.77050781 C0.61338486 33.76411789 -0.40042755 33.75772797 -1.44496155 33.75114441 C-7.86126546 33.61891156 -13.202063 33.07913672 -18.29858398 28.79394531 C-22.39707434 23.46590785 -23.01050023 19.95681924 -22.55639648 13.25878906 C-20.89283803 8.09300228 -19.17462968 5.1586099 -14.55639648 2.25878906 C-9.68731512 0.24455719 -5.19844722 -0.02694903 0 0 Z " fill="#746EB8" transform="translate(1324.556396484375,52.7412109375)"/>
<path d="M0 0 C5.43626494 4.53191433 11.12643795 9.83219999 12.015625 17.22265625 C12.21304166 23.09320441 11.29104022 27.45647035 7.77734375 32.2421875 C3.65227474 36.65174402 -0.77977374 38.08876621 -6.7421875 38.359375 C-11.94446986 38.11359788 -15.51375789 36.98459367 -19.21484375 33.2109375 C-20.5648019 31.63511087 -21.90584037 30.05160336 -23.23828125 28.4609375 C-29.07353894 21.93647615 -36.70255861 19.4366925 -45.22265625 18.2421875 C-54.32486272 17.95414299 -63.1650137 19.94113866 -70.53515625 25.4921875 C-77.8246634 32.95121807 -81.27567625 41.92311732 -81.53515625 52.3671875 C-81.14198231 62.73715025 -78.22294463 71.72628535 -70.59765625 79.0546875 C-61.89449655 86.03669994 -52.11811325 87.42377245 -41.22265625 86.2421875 C-32.1602999 84.45106733 -26.6657719 79.58356975 -20.22265625 73.2421875 C-14.7667829 68.35031793 -11.03373143 66.92498437 -3.72265625 67.03125 C1.39097754 67.46271285 4.05152937 69.48338156 7.52734375 73.1171875 C11.29135838 78.34498559 12.68381719 82.76392398 11.77734375 89.2421875 C9.17952163 98.91957068 -0.12812758 106.5887692 -8.38500977 111.65771484 C-27.34473276 122.5730498 -49.00679991 124.70879247 -70.09765625 119.5546875 C-87.91391251 114.24974033 -102.37175702 103.58484461 -111.47265625 87.2421875 C-120.57343425 69.84248146 -122.27951252 48.76262556 -116.53515625 29.984375 C-110.8265306 13.70799591 -100.59220664 -0.17527749 -85.125 -8.40625 C-56.63165778 -22.06972405 -24.96835981 -19.746506 0 0 Z " fill="#F1F2F2" transform="translate(737.22265625,66.7578125)"/>
<path d="M0 0 C11.46923967 9.665472 17.87566907 23.17771599 19.3828125 38.03125 C20.74333713 55.42743186 20.74333713 55.42743186 15.8828125 61.5859375 C11.55450618 65.75644099 7.62481247 67.88178334 1.6328125 68.28125 C-3.42290439 68.1793949 -7.49409981 66.9639919 -11.31640625 63.484375 C-16.09994231 58.24912488 -17.63180503 53.30628765 -18.24902344 46.21948242 C-18.85246564 39.32800932 -19.55380603 33.15120556 -24.6171875 28.03125 C-30.02666522 24.03854026 -37.36948373 23.5074622 -43.9296875 24.31640625 C-48.54912988 25.35753057 -52.92645224 26.6779293 -55.7734375 30.640625 C-59.3407986 36.60321426 -59.77160586 41.3765015 -59.82250977 48.19628906 C-59.83240936 49.0161731 -59.84230896 49.83605713 -59.85250854 50.68078613 C-59.88405233 53.38611989 -59.90885279 56.09147119 -59.93359375 58.796875 C-59.95416943 60.67446342 -59.97516606 62.55204727 -59.99656677 64.42962646 C-60.05172405 69.3680857 -60.1011613 74.3065863 -60.14941406 79.24511719 C-60.20851449 85.17231769 -60.27470754 91.0994427 -60.33971405 97.02658081 C-60.43764374 106.02809105 -60.52655442 115.02965001 -60.6171875 124.03125 C-72.8271875 124.03125 -85.0371875 124.03125 -97.6171875 124.03125 C-97.73751393 103.1301038 -97.73751393 103.1301038 -97.76367188 94.14453125 C-97.78152834 88.03979562 -97.80253436 81.93519639 -97.84350586 75.83056641 C-97.87636791 70.90275717 -97.8940965 65.97509445 -97.90181923 61.04718399 C-97.90731497 59.17753929 -97.91804512 57.3079016 -97.93437767 55.43832016 C-98.09733058 35.9921128 -95.96205234 17.60025383 -81.69140625 2.921875 C-61.08442827 -15.86113317 -22.23195642 -16.72374035 0 0 Z " fill="#F1F2F2" transform="translate(867.6171875,60.96875)"/>
<path d="M0 0 C1.98 0.99 1.98 0.99 4 2 C9.15234472 4.5420714 13.27459474 5.47412683 19.0625 5.375 C19.74376953 5.38660156 20.42503906 5.39820313 21.12695312 5.41015625 C25.84556828 5.38295962 28.95249778 4.35386654 33 2 C34.32 1.34 35.64 0.68 37 0 C37 42.57 37 85.14 37 129 C24.79 129 12.58 129 0 129 C0 86.43 0 43.86 0 0 Z " fill="#746EB8" transform="translate(1235,56)"/>
<path d="M0 0 C2.27279278 1.13639639 4.52933291 2.31181967 6.71875 3.6015625 C10.81370756 5.34679441 14.10449764 5.44452464 18.5 5.375 C19.60021484 5.39240234 19.60021484 5.39240234 20.72265625 5.41015625 C25.57198707 5.38413122 28.74072205 4.50905741 33 2 C34.32 1.34 35.64 0.68 37 0 C37 42.57 37 85.14 37 129 C24.79 129 12.58 129 0 129 C0 86.43 0 43.86 0 0 Z " fill="#F1F2F2" transform="translate(557,56)"/>
<path d="M0 0 C18.15 0 36.3 0 55 0 C55 4.29 55 8.58 55 13 C41.47 13 27.94 13 14 13 C14 39.4 14 65.8 14 93 C39.74 93 65.48 93 92 93 C92 79.14 92 65.28 92 51 C96.95 51 101.9 51 107 51 C107 69.48 107 87.96 107 107 C71.69 107 36.38 107 0 107 C0 71.69 0 36.38 0 0 Z " fill="#FEFEFE" transform="translate(64,76)"/>
<path d="M0 0 C6.03048244 5.32952231 9.12875003 10.76340939 9.96484375 18.8203125 C10.07114532 25.41100993 8.17797174 30.89359009 4 36 C-1.41907848 41.2959176 -6.92761706 44.07523269 -14.5 44.375 C-20.93552865 44.12023725 -26.80948377 42.0471259 -31.61328125 37.625 C-36.85010367 31.48832922 -38.86776355 24.97026424 -38.4765625 16.9609375 C-37.37015079 10.08667455 -34.5249414 4.84059643 -29.0625 0.5 C-19.70902717 -5.67748019 -9.64865169 -5.71595043 0 0 Z " fill="#746EB8" transform="translate(1268,4)"/>
<path d="M0 0 C5.18187059 4.57954984 8.61678389 9.27032691 9.3359375 16.26953125 C9.42729509 24.55566509 9.11858264 30.44349212 3.45703125 36.70703125 C-1.73646081 41.59152836 -7.37071779 44.08100898 -14.5 44.375 C-21.57466816 44.08326111 -27.28044362 41.61431122 -32.45703125 36.78125 C-37.53363288 30.92066685 -38.6788481 24.53466484 -38.37890625 16.9296875 C-37.57098327 10.68286032 -35.36979563 5.93821881 -30.75 1.625 C-21.2901745 -5.62082378 -10.26321013 -6.08002052 0 0 Z " fill="#F1F2F2" transform="translate(590,4)"/>
<path d="M0 0 C21.78 0 43.56 0 66 0 C66 21.45 66 42.9 66 65 C61.71 65 57.42 65 53 65 C53 47.84 53 30.68 53 13 C35.51 13 18.02 13 0 13 C0 8.71 0 4.42 0 0 Z " fill="#050508" transform="translate(119,62)"/>
</svg>
